<?xml version="1.0" encoding="utf-8"?>
<!-- Generator: Adobe Illustrator 24.0.0, SVG Export Plug-In . SVG Version: 6.00 Build 0)  -->
<svg version="1.1" id="Layer_1" xmlns="http://www.w3.org/2000/svg" xmlns:xlink="http://www.w3.org/1999/xlink" x="0px" y="0px"
	 viewBox="0 0 240 140" style="enable-background:new 0 0 240 140;" xml:space="preserve">
<style type="text/css">
	.st0{fill:none;stroke:#F7F7F7;stroke-width:6;stroke-miterlimit:10;}
	.st1{fill:#F7F7F7;}
	.st2{fill:none;stroke:#F7F7F7;stroke-width:5;stroke-linecap:round;stroke-miterlimit:10;}
	.st3{fill:#171717;stroke:#F7F7F7;stroke-width:3;stroke-linejoin:round;stroke-miterlimit:10;}
</style>
<g>
	<path class="st0" d="M148.38,135.74h-76.5c-4.92,0-8.9-3.99-8.9-8.9V13.16c0-4.92,3.99-8.9,8.9-8.9h76.5c4.92,0,8.9,3.99,8.9,8.9
		v113.69C157.28,131.76,153.29,135.74,148.38,135.74z"/>
	<g>
		<path class="st1" d="M96.54,27.86c0,0.79-0.15,1.53-0.45,2.23c-0.3,0.7-0.71,1.31-1.23,1.83c-0.52,0.52-1.13,0.93-1.83,1.23
			c-0.7,0.3-1.45,0.45-2.25,0.45c-0.71,0-1.4-0.12-2.06-0.37c-0.66-0.25-1.25-0.61-1.79-1.09c-0.53,0.48-1.12,0.84-1.77,1.09
			c-0.65,0.25-1.34,0.37-2.07,0.37c-0.8,0-1.55-0.15-2.24-0.45s-1.3-0.71-1.83-1.23c-0.52-0.52-0.93-1.13-1.23-1.83
			c-0.3-0.7-0.45-1.44-0.45-2.23v-9.61h3.85v9.61c0,0.26,0.05,0.51,0.15,0.74c0.1,0.23,0.23,0.43,0.41,0.61
			c0.17,0.17,0.38,0.31,0.61,0.41c0.23,0.1,0.48,0.15,0.74,0.15s0.51-0.05,0.75-0.15c0.23-0.1,0.44-0.23,0.62-0.41
			s0.32-0.38,0.42-0.61c0.1-0.23,0.15-0.48,0.15-0.74v-9.61h3.83v9.61c0,0.26,0.05,0.51,0.16,0.74c0.1,0.23,0.24,0.43,0.42,0.61
			s0.38,0.31,0.61,0.41c0.23,0.1,0.48,0.15,0.74,0.15s0.51-0.05,0.75-0.15c0.23-0.1,0.44-0.23,0.61-0.41s0.31-0.38,0.42-0.61
			c0.1-0.23,0.16-0.48,0.16-0.74v-9.61h3.83V27.86z"/>
	</g>
	<line class="st2" x1="103.77" y1="30.65" x2="142.92" y2="30.65"/>
	<line class="st2" x1="142.92" y1="48.44" x2="80.29" y2="48.44"/>
	<line class="st2" x1="142.92" y1="66.23" x2="80.29" y2="66.23"/>
	<line class="st2" x1="142.92" y1="84.03" x2="80.29" y2="84.03"/>
	<line class="st2" x1="142.92" y1="101.82" x2="80.29" y2="101.82"/>
	<line class="st2" x1="142.92" y1="119.61" x2="80.29" y2="119.61"/>
	<g>
		<path class="st3" d="M131.42,80.41c0.41,0.07,0.82,0.21,1.19,0.41L131.42,80.41z"/>
		<path class="st3" d="M127.16,86.97c-0.26-0.36-0.44-0.75-0.56-1.16L127.16,86.97z"/>
		<path class="st3" d="M163.24,119.18l-35.42-31.46c-0.18-0.16-0.34-0.33-0.48-0.51c-0.07-0.08-0.13-0.16-0.19-0.24l-0.56-1.16
			l-4.24-8.6l9.07,3.2l1.19,0.41c0.09,0.05,0.17,0.1,0.26,0.16c0.2,0.12,0.39,0.26,0.56,0.41l35.42,31.46L163.24,119.18z"/>
		<path class="st3" d="M132.62,80.82l0.3,0.11l-0.04,0.05C132.79,80.92,132.7,80.87,132.62,80.82z"/>
		<path class="st3" d="M127.3,87.26l-0.15-0.29c0.06,0.08,0.12,0.16,0.19,0.24L127.3,87.26z"/>
		
			<rect x="165.9" y="114.18" transform="matrix(0.664 -0.7477 0.7477 0.664 -32.294 167.412)" class="st3" width="8.46" height="10.92"/>
	</g>
</g>
</svg>
