<svg id="Layer_1" data-name="Layer 1" xmlns="http://www.w3.org/2000/svg" viewBox="0 0 232.76 186.11"><defs><style>.cls-1{fill:#171717;}</style></defs><title>favicon</title><path class="cls-1" d="M7316.38,7223.5a67.85,67.85,0,0,1-5.47,27.09,69.4,69.4,0,0,1-14.95,22.13,71.21,71.21,0,0,1-22.22,14.87,68.4,68.4,0,0,1-27.25,5.46,69.93,69.93,0,0,1-25-4.53,68.73,68.73,0,0,1-21.7-13.24,67,67,0,0,1-21.45,13.24,69.65,69.65,0,0,1-25,4.53,67.81,67.81,0,0,1-27.17-5.46,71.5,71.5,0,0,1-22.13-14.87,69.4,69.4,0,0,1-14.95-22.13,67.85,67.85,0,0,1-5.47-27.09V7107h46.65V7223.5a22.46,22.46,0,0,0,1.8,9,23.14,23.14,0,0,0,12.3,12.3,22.46,22.46,0,0,0,9,1.8,23.11,23.11,0,0,0,9.06-1.8,23.75,23.75,0,0,0,7.52-5,22.56,22.56,0,0,0,6.84-16.32V7107h46.48V7223.5a21.69,21.69,0,0,0,1.88,9,24.41,24.41,0,0,0,5,7.35,23.12,23.12,0,0,0,7.35,5,22.47,22.47,0,0,0,9,1.8,23.09,23.09,0,0,0,9.05-1.8,22.86,22.86,0,0,0,7.44-5,24.78,24.78,0,0,0,5-7.35,21.69,21.69,0,0,0,1.88-9V7107h46.48Z" transform="translate(-7083.62 -7106.95)"/></svg>