<?xml version="1.0" encoding="utf-8"?>
<!-- Generator: Adobe Illustrator 24.0.0, SVG Export Plug-In . SVG Version: 6.00 Build 0)  -->
<svg version="1.1" id="Layer_1" xmlns="http://www.w3.org/2000/svg" xmlns:xlink="http://www.w3.org/1999/xlink" x="0px" y="0px"
	 viewBox="0 0 240 140" style="enable-background:new 0 0 240 140;" xml:space="preserve">
<style type="text/css">
	.st0{fill:none;stroke:#F7F7F7;stroke-width:6;stroke-linejoin:round;stroke-miterlimit:10;}
	.st1{fill:none;stroke:#F7F7F7;stroke-width:6;stroke-linecap:round;stroke-linejoin:round;stroke-miterlimit:10;}
</style>
<g>
	<path class="st0" d="M163.24,133.36c-0.4,0.09-0.83,0.14-1.26,0.14H68.92c-3.12,0-5.64-2.53-5.64-5.65V12.15
		c0-3.12,2.52-5.65,5.64-5.65h80.94v111.55C149.86,125.88,155.68,132.35,163.24,133.36z"/>
	<path class="st0" d="M169.83,16.06c-3.65,0.07-6.59,3.06-6.59,6.73v87.44h-13.48V16.05h19.96
		C169.76,16.05,169.79,16.05,169.83,16.06z"/>
	<rect x="149.76" y="16.05" class="st0" width="13.48" height="94.18"/>
	<path class="st0" d="M176.72,23.05v96.97c0,7.45-6.04,13.48-13.48,13.48c-3.72,0-7.09-1.51-9.53-3.95
		c-2.44-2.43-3.95-5.81-3.95-9.53v-9.79h13.48V22.79c0-3.67,2.94-6.66,6.59-6.73C173.64,16.11,176.72,19.23,176.72,23.05z"/>
	<rect x="76.58" y="27.3" class="st0" width="58.47" height="35.74"/>
	<line class="st1" x1="76.58" y1="79.47" x2="135.05" y2="79.47"/>
	<line class="st1" x1="76.58" y1="95.3" x2="135.05" y2="95.3"/>
	<line class="st1" x1="76.58" y1="111.13" x2="135.05" y2="111.13"/>
</g>
</svg>
